<?xml version="1.0" standalone="no"?>
<!DOCTYPE svg PUBLIC "-//W3C//DTD SVG 20010904//EN"
 "http://www.w3.org/TR/2001/REC-SVG-20010904/DTD/svg10.dtd">
<svg version="1.0" xmlns="http://www.w3.org/2000/svg"
 width="461.000000pt" height="541.000000pt" viewBox="0 0 461.000000 541.000000"
 preserveAspectRatio="xMidYMid meet">

<g transform="translate(0.000000,541.000000) scale(0.100000,-0.100000)"
fill="#000000" stroke="none">
<path d="M807 5403 c-14 -13 -5 -23 88 -93 108 -81 183 -168 244 -281 62 -115
83 -208 85 -369 1 -184 -13 -240 -73 -305 -43 -46 -159 -196 -179 -232 -8 -13
-24 -13 -138 6 -71 11 -191 26 -268 32 -167 14 -487 7 -534 -11 -31 -12 -32
-13 -17 -30 9 -10 121 -71 248 -136 236 -119 396 -207 454 -251 l33 -24 -19
-37 c-11 -21 -35 -83 -54 -138 -180 -516 -96 -1055 227 -1468 115 -146 301
-313 471 -421 62 -39 237 -128 271 -137 14 -4 30 -39 66 -146 135 -402 251
-627 419 -816 90 -101 150 -151 160 -134 4 7 -1 83 -12 168 -21 166 -37 631
-25 714 9 59 26 75 186 181 250 165 500 299 830 445 125 55 195 91 195 100 0
21 -139 65 -265 84 -397 60 -765 6 -1120 -165 -68 -33 -147 -74 -174 -91 l-50
-31 -45 24 c-24 13 -68 45 -97 72 -167 153 -227 385 -175 685 12 68 29 134 37
147 38 57 228 169 334 196 41 11 52 9 126 -20 175 -68 395 -221 497 -346 60
-74 68 -72 88 24 13 57 18 261 9 341 l-5 45 35 -3 c19 -2 105 -14 191 -28 197
-30 262 -31 289 -4 17 17 18 24 9 41 -6 11 -9 22 -7 23 2 1 28 17 58 35 63 38
120 89 120 108 0 10 -20 13 -75 13 -41 0 -75 4 -75 9 0 5 9 28 19 52 23 50 19
61 -16 53 -25 -7 -26 -6 -19 26 9 48 50 96 92 110 42 14 174 9 216 -8 27 -11
27 -11 13 -53 -9 -23 -13 -44 -11 -47 3 -2 38 9 78 24 61 24 88 29 163 29 108
0 143 16 178 84 22 44 28 48 123 84 181 69 536 220 568 242 69 47 23 146 -149
321 -207 211 -447 361 -791 497 -249 99 -515 167 -794 202 -154 20 -517 30
-623 18 l-78 -9 -50 63 c-186 233 -499 413 -859 493 -180 40 -404 63 -423 43z
m298 -74 c130 -24 368 -101 491 -158 48 -23 124 -66 169 -96 84 -56 236 -200
267 -253 l17 -29 -44 -10 -43 -10 -46 63 c-165 224 -466 380 -931 480 -11 2
-31 13 -45 24 l-25 21 40 -6 c22 -4 90 -15 150 -26z m1683 -590 c314 -34 679
-129 942 -244 280 -123 536 -300 696 -483 100 -113 106 -124 34 -56 -193 180
-449 349 -688 453 -180 79 -428 151 -707 205 -383 74 -773 76 -1089 5 -90 -20
-289 -83 -358 -113 -21 -9 -38 -14 -38 -12 0 9 155 99 232 136 96 45 252 99
318 110 70 12 549 11 658 -1z m-621 -613 c-26 -67 -34 -203 -16 -281 l13 -60
7 95 c3 52 15 124 24 160 22 78 70 190 83 190 5 0 16 -8 26 -18 15 -18 15 -22
-8 -73 -46 -105 -56 -199 -34 -318 l12 -66 9 100 c4 55 17 134 28 175 22 80
76 190 95 190 6 0 16 -11 23 -24 12 -21 10 -33 -15 -92 -26 -62 -29 -80 -29
-186 0 -67 4 -121 10 -127 7 -7 11 13 11 62 1 115 43 252 105 338 l22 31 20
-21 20 -20 -26 -58 c-50 -113 -74 -271 -47 -313 7 -11 10 -3 10 29 0 66 27
156 76 258 36 75 50 94 72 100 54 16 411 8 512 -10 241 -44 462 -109 805 -237
293 -109 460 -181 444 -191 -27 -15 -435 -177 -476 -189 -53 -16 -62 -9 -87
64 -28 81 -44 89 -35 18 14 -108 11 -178 -8 -194 -25 -21 -78 -37 -92 -29 -7
4 -18 48 -26 96 -20 122 -40 175 -89 243 -47 63 -113 111 -190 136 -284 95
-590 -26 -636 -251 -32 -153 49 -360 228 -582 29 -35 52 -68 52 -72 0 -24 -62
-24 -187 0 -325 64 -717 67 -945 6 -234 -61 -447 -201 -550 -359 -81 -125
-120 -324 -100 -507 7 -59 15 -115 18 -124 10 -25 23 -17 26 16 3 30 4 30 45
-33 76 -116 253 -267 401 -342 29 -15 54 -32 56 -39 2 -7 16 -64 31 -127 50
-214 150 -453 284 -678 63 -108 71 -126 81 -201 6 -46 9 -85 7 -87 -8 -8 -97
97 -148 175 -107 163 -223 421 -294 657 -19 63 -35 119 -35 124 0 5 15 10 33
12 17 2 32 7 32 13 0 5 -46 26 -102 46 -232 84 -423 209 -619 404 -191 191
-307 378 -379 609 -27 85 -28 91 -16 170 41 272 148 522 304 708 39 47 40 47
68 32 76 -39 210 -34 348 12 69 23 138 61 128 70 -2 2 -53 -8 -113 -22 -74
-19 -138 -28 -199 -28 -112 -1 -134 9 -338 163 -209 157 -390 262 -682 396
-116 53 -94 60 164 52 477 -15 798 -93 1234 -300 64 -31 117 -52 117 -47 0 16
-110 93 -202 140 l-89 46 88 42 c48 22 148 61 221 86 130 44 201 76 271 119
33 20 34 20 27 1 -58 -138 -59 -273 -4 -378 13 -26 14 -20 10 81 -5 121 6 192
43 271 l25 53 33 -27 34 -27 -20 -51z m1591 67 c5 -17 -26 -29 -40 -15 -6 6
-7 15 -3 22 9 14 37 9 43 -7z m-373 -340 c96 -31 179 -103 217 -190 22 -49 48
-162 48 -210 0 -29 -4 -33 -62 -56 -35 -13 -64 -23 -66 -22 -2 2 5 22 14 45
20 49 12 60 -43 60 -45 0 -49 15 -14 56 17 19 31 39 31 43 0 5 -25 12 -55 16
-30 3 -55 11 -55 16 0 5 11 32 25 59 14 27 25 52 25 56 0 4 -34 4 -75 0 l-75
-7 0 52 0 52 -30 -7 c-16 -3 -43 -9 -60 -12 -29 -6 -30 -5 -30 29 0 19 6 38
13 41 20 9 139 -3 192 -21z m-459 -129 c34 -9 30 -17 -21 -60 -25 -20 -45 -40
-45 -44 0 -4 21 -13 48 -20 26 -7 49 -15 51 -17 3 -2 -14 -19 -37 -39 -23 -19
-42 -40 -42 -45 0 -5 20 -9 44 -9 77 0 79 -4 45 -72 l-31 -60 66 7 c76 8 77 6
41 -65 -14 -27 -25 -52 -25 -56 0 -4 29 -4 65 -1 36 4 65 5 65 3 0 -2 -9 -23
-20 -47 -28 -62 -26 -69 18 -70 20 0 46 -4 57 -8 17 -7 10 -13 -42 -40 l-62
-31 -52 63 c-151 180 -228 355 -216 491 5 71 34 139 55 131 8 -3 25 -8 38 -11z
m-371 -736 c22 -22 42 -232 31 -322 l-8 -57 -79 76 c-95 90 -227 180 -363 245
l-99 48 59 7 c33 4 64 8 69 11 16 6 383 -1 390 -8z m-1082 -403 c-21 -116 -21
-295 0 -375 24 -93 99 -239 152 -298 25 -27 67 -64 95 -82 27 -18 50 -34 50
-37 0 -2 -31 12 -68 32 -186 97 -291 307 -309 615 -5 92 -3 110 12 136 19 29
77 96 81 91 1 -1 -5 -38 -13 -82z m1637 -526 c127 -15 224 -39 212 -51 -7 -7
-54 -6 -146 2 -165 16 -452 8 -581 -15 -184 -33 -416 -102 -590 -176 -101 -43
-90 -29 30 36 207 113 418 182 640 208 70 9 357 6 435 -4z"/>
</g>
</svg>
